<svg version="1.1" xmlns="http://www.w3.org/2000/svg" x="0px" y="0px" viewBox="0 0 512 512">
    <circle fill="#ECEFF1" cx="256" cy="256" r="362"/>
    <path fill="#455A64" d="M442.3,405.7c-13.8-9-27.5-14.7-39.4-18.2l-70.2-14.1c-7.4-1.4-12.7-8-12.7-15.7v-16.1 c4.5-6.3,8.8-14.8,13.2-23.6c3.5-6.8,8.7-17.1,11.3-19.7c14.2-14.3,27.9-30.3,32.2-51c4-19.4,0.1-29.6-4.5-37.8 c0-20.4-0.6-46-5.5-64.7c-0.6-25.2-5.2-39.4-16.7-51.8c-8.1-8.8-20.1-10.8-29.7-12.5c-3.8-0.6-9-1.5-10.9-2.6 c-17.1-9.2-33.9-13.7-54-14.1c-42.1,1.7-94,28.5-111.3,76.4c-5.4,14.6-4.8,38.5-4.4,57.7l-0.4,11.6c-4.1,8.1-8.2,18.3-4.2,37.8 c4.2,20.7,18,36.8,32.4,51.2c2.4,2.4,7.7,12.8,11.2,19.6c4.5,8.8,8.8,17.2,13.3,23.5v16.1c0,7.6-5.3,14.2-12.7,15.7L109,387.5 c-11.9,3.6-25.5,9.2-39.3,18.2C19.1,438.9,4.1,493.8,0,512c170.7,0,341.3,0,512,0C507.9,493.8,493,438.9,442.3,405.7z"/>
</svg>
